<svg version="1.2" xmlns="http://www.w3.org/2000/svg" viewBox="0 0 45 45" width="45" height="45">
	<title>New Project</title>
	<style>
		.s0 { fill: #7f6c79 } 
	</style>
	<path fill-rule="evenodd" class="s0" d="m34.2 37.6c1.2 0 2.1 0.8 2.1 1.7 0 1-0.9 1.8-2.1 1.8h-25.1c-1.2 0-2.1-0.8-2.1-1.8 0-0.9 0.9-1.7 2.1-1.7zm-1.4-27.6c1.9 0 3.5 1.5 3.5 3.5v20.7h-29.3v-6.9c0-2 1.5-3.5 3.4-3.5h5.2v-3.4c0-2 1.5-3.5 3.4-3.5h5.2v-3.4c0-2 1.6-3.5 3.5-3.5zm-22.5 17.3v3.4h5.2v-3.4zm8.6-6.9v10.3h5.2v-10.3zm8.6-6.9v17.2h5.2v-17.2z"/>
</svg>