<svg version="1.2" xmlns="http://www.w3.org/2000/svg" viewBox="0 0 45 45" width="45" height="45">
	<title>New Project</title>
	<style>
		.s0 { fill: #fcfcfc } 
	</style>
	<path class="s0" d="m5.2 26.5l-1.4-2.9h9.9l-1.1-2.8h-9.3l-1.4-2.8h14.8l-1.2-2.9h-13.9l-1.6-2.8h7.1c0-1 0.4-2 1.1-2.7 0.7-0.7 1.7-1.1 2.7-1.1h22.7v7.6h5.7l5.7 7.5v9.5h-3.8c0 1.5-0.6 3-1.7 4-1 1.1-2.5 1.7-4 1.7-1.5 0-2.9-0.6-4-1.7-1.1-1-1.7-2.5-1.7-4h-7.5c0 1.5-0.6 3-1.7 4-1.1 1.1-2.5 1.7-4 1.7-1.5 0-3-0.6-4-1.7-1.1-1-1.7-2.5-1.7-4h-3.8v-6.6zm30.3 9.5c0.8 0 1.5-0.3 2-0.9 0.6-0.5 0.9-1.2 0.9-2 0-0.7-0.3-1.5-0.9-2-0.5-0.5-1.2-0.8-2-0.8-0.7 0-1.5 0.3-2 0.8-0.5 0.5-0.8 1.3-0.8 2 0 0.8 0.3 1.5 0.8 2 0.5 0.6 1.3 0.9 2 0.9zm2.9-17.1h-4.8v4.7h8.5zm-21.8 17.1c0.7 0 1.5-0.3 2-0.8 0.5-0.6 0.8-1.3 0.8-2 0-0.8-0.3-1.5-0.8-2.1-0.5-0.5-1.3-0.8-2-0.8-0.8 0-1.5 0.3-2 0.8-0.6 0.6-0.9 1.3-0.9 2.1 0 0.7 0.3 1.4 0.9 2 0.5 0.5 1.2 0.8 2 0.8z"/>
</svg>