<svg width="25" height="25" viewBox="0 0 25 25" fill="none" xmlns="http://www.w3.org/2000/svg">
<path d="M13.4414 5.27344C14.2834 5.27568 14.7107 5.28017 15.0797 5.29065L15.2249 5.29589C15.3925 5.30188 15.5579 5.30936 15.7577 5.31834C16.5541 5.35576 17.0974 5.4815 17.5741 5.66635C18.0681 5.85645 18.4842 6.1139 18.9003 6.52927C19.281 6.90328 19.5755 7.35587 19.7632 7.85546C19.9481 8.3322 20.0738 8.87554 20.1113 9.6726C20.1202 9.87168 20.1277 10.0371 20.1337 10.2055L20.1382 10.3507C20.1494 10.7189 20.1539 11.1462 20.1554 11.9882L20.1562 12.5465V13.5269C20.158 14.0728 20.1522 14.6187 20.1389 15.1644L20.1345 15.3096C20.1285 15.478 20.121 15.6434 20.112 15.8425C20.0746 16.6396 19.9474 17.1822 19.7632 17.6597C19.5755 18.1592 19.281 18.6118 18.9003 18.9858C18.5263 19.3666 18.0737 19.661 17.5741 19.8488C17.0974 20.0336 16.5541 20.1593 15.7577 20.1968L15.2249 20.2192L15.0797 20.2237C14.7107 20.2342 14.2834 20.2394 13.4414 20.2409L12.8831 20.2417H11.9034C11.3573 20.2436 10.8111 20.2379 10.2652 20.2245L10.12 20.22C9.94229 20.2132 9.76467 20.2055 9.58709 20.1968C8.79078 20.1593 8.24743 20.0336 7.76995 19.8488C7.27063 19.6609 6.8183 19.3665 6.44451 18.9858C6.06353 18.6119 5.76877 18.1593 5.58084 17.6597C5.39598 17.1829 5.27025 16.6396 5.23283 15.8425L5.21038 15.3096L5.20664 15.1644C5.19284 14.6187 5.1866 14.0728 5.18793 13.5269V11.9882C5.18585 11.4423 5.19134 10.8964 5.20439 10.3507L5.20963 10.2055C5.21562 10.0371 5.2231 9.87168 5.23208 9.6726C5.2695 8.87554 5.39524 8.33294 5.58009 7.85546C5.76846 7.35567 6.06373 6.90306 6.44526 6.52927C6.81883 6.14874 7.2709 5.85426 7.76995 5.66635C8.24743 5.4815 8.79003 5.35576 9.58709 5.31834C9.78617 5.30936 9.95232 5.30188 10.12 5.29589L10.2652 5.2914C10.8109 5.2781 11.3568 5.27236 11.9027 5.27419L13.4414 5.27344ZM12.672 9.0155C11.6796 9.0155 10.7278 9.40975 10.026 10.1115C9.32424 10.8133 8.92998 11.7651 8.92998 12.7576C8.92998 13.75 9.32424 14.7018 10.026 15.4036C10.7278 16.1054 11.6796 16.4996 12.672 16.4996C13.6645 16.4996 14.6163 16.1054 15.3181 15.4036C16.0199 14.7018 16.4141 13.75 16.4141 12.7576C16.4141 11.7651 16.0199 10.8133 15.3181 10.1115C14.6163 9.40975 13.6645 9.0155 12.672 9.0155ZM12.672 10.5123C12.9669 10.5123 13.2589 10.5703 13.5313 10.6831C13.8037 10.7959 14.0513 10.9612 14.2598 11.1697C14.4683 11.3781 14.6337 11.6256 14.7466 11.898C14.8595 12.1704 14.9176 12.4623 14.9177 12.7572C14.9177 13.052 14.8597 13.344 14.7469 13.6164C14.6341 13.8888 14.4688 14.1364 14.2603 14.3449C14.0518 14.5534 13.8044 14.7189 13.532 14.8317C13.2596 14.9446 12.9676 15.0027 12.6728 15.0028C12.0773 15.0028 11.5062 14.7662 11.0852 14.3452C10.6641 13.9241 10.4276 13.353 10.4276 12.7576C10.4276 12.1621 10.6641 11.591 11.0852 11.1699C11.5062 10.7489 12.0773 10.5123 12.6728 10.5123M16.602 7.89288C16.3538 7.89288 16.1159 7.99144 15.9404 8.16688C15.765 8.34233 15.6664 8.58028 15.6664 8.82839C15.6664 9.07651 15.765 9.31446 15.9404 9.4899C16.1159 9.66535 16.3538 9.76391 16.602 9.76391C16.8501 9.76391 17.088 9.66535 17.2635 9.4899C17.4389 9.31446 17.5375 9.07651 17.5375 8.82839C17.5375 8.58028 17.4389 8.34233 17.2635 8.16688C17.088 7.99144 16.8501 7.89288 16.602 7.89288Z" fill="#FCFCFC"/>
</svg>