<svg width="25" height="25" viewBox="0 0 25 25" fill="none" xmlns="http://www.w3.org/2000/svg">
<path d="M6.67578 5.27344C6.23755 5.27344 5.81727 5.44752 5.5074 5.7574C5.19752 6.06727 5.02344 6.48755 5.02344 6.92578C5.02344 7.364 5.19752 7.78428 5.5074 8.09415C5.81727 8.40403 6.23755 8.57811 6.67578 8.57811C7.114 8.57811 7.53428 8.40403 7.84415 8.09415C8.15403 7.78428 8.32811 7.364 8.32811 6.92578C8.32811 6.48755 8.15403 6.06727 7.84415 5.7574C7.53428 5.44752 7.114 5.27344 6.67578 5.27344ZM5.12063 9.93886C5.09486 9.93886 5.07013 9.9491 5.05191 9.96733C5.03368 9.98556 5.02344 10.0103 5.02344 10.0361V20.1445C5.02344 20.1981 5.06698 20.2417 5.12063 20.2417H8.23092C8.25669 20.2417 8.28142 20.2314 8.29964 20.2132C8.31787 20.195 8.32811 20.1703 8.32811 20.1445V10.0361C8.32811 10.0103 8.31787 9.98556 8.29964 9.96733C8.28142 9.9491 8.25669 9.93886 8.23092 9.93886H5.12063ZM10.1748 9.93886C10.1491 9.93886 10.1243 9.9491 10.1061 9.96733C10.0879 9.98556 10.0776 10.0103 10.0776 10.0361V20.1445C10.0776 20.1981 10.1212 20.2417 10.1748 20.2417H13.2851C13.3109 20.2417 13.3356 20.2314 13.3539 20.2132C13.3721 20.195 13.3823 20.1703 13.3823 20.1445V14.7015C13.3823 14.3148 13.5359 13.944 13.8093 13.6706C14.0828 13.3971 14.4536 13.2435 14.8403 13.2435C15.2269 13.2435 15.5978 13.3971 15.8712 13.6706C16.1446 13.944 16.2982 14.3148 16.2982 14.7015V20.1445C16.2982 20.1981 16.3418 20.2417 16.3954 20.2417H19.5057C19.5315 20.2417 19.5562 20.2314 19.5744 20.2132C19.5926 20.195 19.6029 20.1703 19.6029 20.1445V13.4418C19.6029 11.5547 17.9622 10.0788 16.0844 10.2491C15.5034 10.3024 14.9344 10.4462 14.3978 10.6752L13.3823 11.1107V10.0361C13.3823 10.0103 13.3721 9.98556 13.3539 9.96733C13.3356 9.9491 13.3109 9.93886 13.2851 9.93886H10.1748Z" fill="#FCFCFC"/>
</svg>
