<svg width="25" height="25" viewBox="0 0 25 25" fill="none" xmlns="http://www.w3.org/2000/svg">
<path fill-rule="evenodd" clip-rule="evenodd" d="M19.9057 8.18952C19.3452 8.43491 18.7511 8.5951 18.1432 8.66476C18.7805 8.28924 19.2593 7.69469 19.4904 6.99206C18.8865 7.34479 18.2273 7.59301 17.5408 7.72625C17.2516 7.42437 16.9042 7.1843 16.5195 7.02054C16.1349 6.85678 15.721 6.77275 15.303 6.77352C14.4954 6.76754 13.7185 7.08254 13.1431 7.64925C12.5676 8.21597 12.2408 8.988 12.2345 9.79561C12.2345 10.0281 12.2607 10.2574 12.3131 10.4834C11.0966 10.4256 9.90544 10.1147 8.81586 9.57049C7.72629 9.02628 6.76223 8.26076 5.98528 7.32286C5.59327 7.98825 5.47315 8.77924 5.64994 9.53102C5.82673 10.2828 6.28679 10.9373 6.93426 11.3583C6.44778 11.343 5.9715 11.2149 5.54297 10.9841V11.0215C5.54773 11.724 5.79574 12.4031 6.2448 12.9433C6.69386 13.4835 7.31622 13.8514 8.00599 13.9845C7.55268 14.1054 7.07806 14.1233 6.61694 14.0369C6.81869 14.6407 7.20282 15.167 7.71636 15.5433C8.22991 15.9196 8.84755 16.1272 9.4841 16.1376C8.18978 17.1318 6.55823 17.5808 4.9375 17.389C6.34609 18.2798 7.97915 18.7512 9.64576 18.7481C10.7869 18.7653 11.92 18.5553 12.9792 18.1305C14.0384 17.7057 15.0025 17.0744 15.8155 16.2735C16.6285 15.4726 17.2741 14.518 17.7147 13.4652C18.1553 12.4125 18.3821 11.2826 18.382 10.1414C18.382 10.0089 18.382 9.88018 18.373 9.74995C18.9743 9.32705 19.4937 8.7983 19.9057 8.18952Z" fill="#FCFCFC"/>
</svg>
