<svg width="29" height="28" viewBox="0 0 29 28" fill="none" xmlns="http://www.w3.org/2000/svg">
<path d="M4.54711 25.8876L23.6451 9.86248L22.3026 25.2072C22.1953 26.4336 23.1135 27.5278 24.3399 27.6351C24.631 27.6609 24.9244 27.629 25.2033 27.5412C25.4821 27.4535 25.7409 27.3116 25.9648 27.1237C26.1887 26.9358 26.3734 26.7056 26.5082 26.4462C26.6431 26.1869 26.7254 25.9035 26.7506 25.6122L28.5635 4.89051C28.5893 4.59934 28.5574 4.30594 28.4696 4.02711C28.3819 3.74828 28.24 3.4895 28.0521 3.26557C27.8642 3.04165 27.634 2.85698 27.3746 2.72214C27.1153 2.5873 26.8319 2.50493 26.5407 2.47975L5.81894 0.666838C5.52782 0.641367 5.23454 0.67349 4.95584 0.761367C4.67714 0.849241 4.41847 0.991148 4.19461 1.17899C3.97075 1.36683 3.78608 1.59693 3.65115 1.85614C3.51621 2.11534 3.43365 2.39859 3.40818 2.68971C3.38271 2.98082 3.41483 3.27411 3.50271 3.55281C3.59058 3.83151 3.73249 4.09018 3.92033 4.31404C4.10817 4.5379 4.33827 4.72257 4.59748 4.8575C4.85668 4.99244 5.13993 5.075 5.43105 5.10047L20.7758 6.44296L1.67779 22.4681C0.737427 23.2572 0.61363 24.6722 1.40269 25.6125C2.19175 26.5529 3.60674 26.6767 4.54711 25.8876Z" fill="#7F6C79"/>
</svg>
