<svg width="120" height="37" viewBox="0 0 120 37" fill="none" xmlns="http://www.w3.org/2000/svg">
<path d="M7.71331 26.3161C6.54778 26.3161 5.49402 26.1165 4.55202 25.7174C3.62598 25.3182 2.89154 24.7434 2.34869 23.993C1.80584 23.2426 1.52644 22.3565 1.51047 21.3347H5.10285C5.15075 22.0212 5.39024 22.564 5.82132 22.9632C6.26837 23.3623 6.87509 23.5619 7.64146 23.5619C8.4238 23.5619 9.0385 23.3783 9.48555 23.0111C9.9326 22.6279 10.1561 22.133 10.1561 21.5262C10.1561 21.0313 10.0044 20.6242 9.70109 20.3048C9.39773 19.9855 9.01455 19.738 8.55153 19.5624C8.10448 19.3708 7.4818 19.1633 6.68349 18.9397C5.5978 18.6204 4.71168 18.3091 4.02513 18.0057C3.35456 17.6864 2.77179 17.2154 2.27684 16.5927C1.79786 15.9541 1.55837 15.1079 1.55837 14.0541C1.55837 13.0642 1.80584 12.202 2.30079 11.4676C2.79574 10.7331 3.49027 10.1743 4.38437 9.79115C5.27848 9.39199 6.30031 9.19242 7.44987 9.19242C9.17421 9.19242 10.5712 9.61552 11.641 10.4617C12.7267 11.292 13.3254 12.4575 13.4372 13.9583H9.74899C9.71706 13.3835 9.46958 12.9125 9.00656 12.5453C8.55951 12.1621 7.96078 11.9705 7.21038 11.9705C6.55576 11.9705 6.02888 12.1382 5.62973 12.4735C5.24654 12.8087 5.05495 13.2957 5.05495 13.9344C5.05495 14.3814 5.19864 14.7566 5.48603 15.06C5.78939 15.3474 6.15661 15.5868 6.5877 15.7784C7.03475 15.9541 7.65743 16.1616 8.45573 16.4011C9.54143 16.7204 10.4275 17.0398 11.1141 17.3591C11.8006 17.6784 12.3914 18.1574 12.8863 18.796C13.3813 19.4347 13.6288 20.2729 13.6288 21.3107C13.6288 22.2048 13.3972 23.035 12.9342 23.8014C12.4712 24.5678 11.7927 25.1825 10.8985 25.6455C10.0044 26.0926 8.9427 26.3161 7.71331 26.3161ZM29.061 12.8806V26.1484H25.6842V24.472C25.2531 25.0468 24.6863 25.5018 23.9838 25.8371C23.2972 26.1564 22.5468 26.3161 21.7326 26.3161C20.6948 26.3161 19.7767 26.1005 18.9784 25.6695C18.1801 25.2224 17.5494 24.5758 17.0864 23.7296C16.6394 22.8674 16.4158 21.8456 16.4158 20.6641V12.8806H19.7687V20.1851C19.7687 21.2389 20.0322 22.0531 20.5591 22.6279C21.0859 23.1867 21.8044 23.4661 22.7145 23.4661C23.6405 23.4661 24.367 23.1867 24.8939 22.6279C25.4207 22.0531 25.6842 21.2389 25.6842 20.1851V12.8806H29.061ZM35.7221 14.7965C36.1531 14.1898 36.7439 13.6869 37.4943 13.2877C38.2607 12.8726 39.1308 12.665 40.1048 12.665C41.2384 12.665 42.2602 12.9445 43.1703 13.5033C44.0963 14.0621 44.8228 14.8604 45.3496 15.8982C45.8925 16.92 46.1639 18.1095 46.1639 19.4666C46.1639 20.8237 45.8925 22.0292 45.3496 23.0829C44.8228 24.1207 44.0963 24.927 43.1703 25.5018C42.2602 26.0766 41.2384 26.364 40.1048 26.364C39.1308 26.364 38.2687 26.1644 37.5183 25.7653C36.7838 25.3661 36.1851 24.8632 35.7221 24.2565V32.471H32.3692V12.8806H35.7221V14.7965ZM42.7392 19.4666C42.7392 18.6683 42.5715 17.9818 42.2362 17.407C41.9169 16.8162 41.4858 16.3692 40.943 16.0658C40.4161 15.7625 39.8413 15.6108 39.2186 15.6108C38.6119 15.6108 38.0372 15.7705 37.4943 16.0898C36.9674 16.3931 36.5363 16.8402 36.201 17.4309C35.8817 18.0217 35.7221 18.7162 35.7221 19.5145C35.7221 20.3128 35.8817 21.0073 36.201 21.5981C36.5363 22.1888 36.9674 22.6439 37.4943 22.9632C38.0372 23.2666 38.6119 23.4182 39.2186 23.4182C39.8413 23.4182 40.4161 23.2586 40.943 22.9392C41.4858 22.6199 41.9169 22.1649 42.2362 21.5741C42.5715 20.9834 42.7392 20.2809 42.7392 19.4666ZM51.9532 14.7965C52.3843 14.1898 52.9751 13.6869 53.7255 13.2877C54.4919 12.8726 55.362 12.665 56.3359 12.665C57.4695 12.665 58.4914 12.9445 59.4014 13.5033C60.3275 14.0621 61.0539 14.8604 61.5808 15.8982C62.1237 16.92 62.3951 18.1095 62.3951 19.4666C62.3951 20.8237 62.1237 22.0292 61.5808 23.0829C61.0539 24.1207 60.3275 24.927 59.4014 25.5018C58.4914 26.0766 57.4695 26.364 56.3359 26.364C55.362 26.364 54.4998 26.1644 53.7494 25.7653C53.015 25.3661 52.4163 24.8632 51.9532 24.2565V32.471H48.6004V12.8806H51.9532V14.7965ZM58.9704 19.4666C58.9704 18.6683 58.8027 17.9818 58.4674 17.407C58.1481 16.8162 57.717 16.3692 57.1742 16.0658C56.6473 15.7625 56.0725 15.6108 55.4498 15.6108C54.8431 15.6108 54.2683 15.7705 53.7255 16.0898C53.1986 16.3931 52.7675 16.8402 52.4322 17.4309C52.1129 18.0217 51.9532 18.7162 51.9532 19.5145C51.9532 20.3128 52.1129 21.0073 52.4322 21.5981C52.7675 22.1888 53.1986 22.6439 53.7255 22.9632C54.2683 23.2666 54.8431 23.4182 55.4498 23.4182C56.0725 23.4182 56.6473 23.2586 57.1742 22.9392C57.717 22.6199 58.1481 22.1649 58.4674 21.5741C58.8027 20.9834 58.9704 20.2809 58.9704 19.4666ZM68.1844 8.42604V26.1484H64.8315V8.42604H68.1844ZM73.1975 11.2999C72.6067 11.2999 72.1118 11.1163 71.7126 10.7491C71.3294 10.3659 71.1378 9.89493 71.1378 9.33611C71.1378 8.7773 71.3294 8.31428 71.7126 7.94706C72.1118 7.56387 72.6067 7.37228 73.1975 7.37228C73.7882 7.37228 74.2752 7.56387 74.6584 7.94706C75.0575 8.31428 75.2571 8.7773 75.2571 9.33611C75.2571 9.89493 75.0575 10.3659 74.6584 10.7491C74.2752 11.1163 73.7882 11.2999 73.1975 11.2999ZM74.85 12.8806V26.1484H71.4971V12.8806H74.85ZM84.2457 15.6347H81.9226V26.1484H78.5219V15.6347H77.0131V12.8806H78.5219V12.21C78.5219 10.5815 78.9849 9.38401 79.9109 8.61764C80.837 7.85126 82.234 7.49203 84.102 7.53992V10.3659C83.2878 10.35 82.721 10.4857 82.4016 10.7731C82.0823 11.0605 81.9226 11.5794 81.9226 12.3298V12.8806H84.2457V15.6347ZM89.7714 8.42604V26.1484H86.4185V8.42604H89.7714ZM105.418 19.2271C105.418 19.7061 105.386 20.1372 105.322 20.5204H95.6227C95.7025 21.4783 96.0378 22.2288 96.6286 22.7716C97.2193 23.3145 97.9458 23.5859 98.8079 23.5859C100.053 23.5859 100.939 23.051 101.466 21.9813H105.083C104.699 23.2586 103.965 24.3123 102.879 25.1426C101.794 25.9568 100.46 26.364 98.8798 26.364C97.6025 26.364 96.4529 26.0846 95.4311 25.5258C94.4252 24.951 93.6349 24.1447 93.0601 23.1069C92.5013 22.0691 92.2219 20.8716 92.2219 19.5145C92.2219 18.1414 92.5013 16.936 93.0601 15.8982C93.619 14.8604 94.4013 14.0621 95.4072 13.5033C96.413 12.9445 97.5706 12.665 98.8798 12.665C100.141 12.665 101.267 12.9365 102.257 13.4793C103.262 14.0222 104.037 14.7965 104.58 15.8024C105.139 16.7923 105.418 17.9339 105.418 19.2271ZM101.945 18.2692C101.929 17.407 101.618 16.7204 101.011 16.2095C100.405 15.6826 99.6621 15.4192 98.784 15.4192C97.9538 15.4192 97.2512 15.6747 96.6765 16.1856C96.1177 16.6805 95.7744 17.3751 95.6467 18.2692H101.945ZM115.194 26.1484L112.463 22.0292L110.045 26.1484H106.452L110.787 19.4906L106.404 12.8806H110.188L112.895 16.9759L115.337 12.8806H118.93L114.571 19.4906L118.978 26.1484H115.194Z" fill="url(#paint0_linear_254_4120)"/>
<defs>
<linearGradient id="paint0_linear_254_4120" x1="0.289062" y1="18.1484" x2="119.289" y2="18.1484" gradientUnits="userSpaceOnUse">
<stop stop-color="#202224"/>
<stop offset="0.0001" stop-color="#515255"/>
<stop offset="1" stop-color="#B8B9BD"/>
</linearGradient>
</defs>
</svg>
